<svg width="742" height="742" viewBox="0 0 742 742" fill="none" xmlns="http://www.w3.org/2000/svg">
<path fill-rule="evenodd" clip-rule="evenodd" d="M532.643 179.922L558.493 175.565C509.759 128.766 443.57 100 370.662 100C222.76 100 102.512 218.378 99.5274 365.539L120.555 350.573L124.112 392.39C125.826 412.54 129.955 431.984 136.205 450.442L140.787 463.974C204.211 454.306 288.246 430.579 379.029 393.139C469.857 355.68 546.533 313.117 598.806 275.041L592.421 262.083C583.543 244.065 572.528 227.275 559.701 212.047L532.643 179.922ZM390.622 414.282C487.859 373.97 569.715 327.648 623.578 286.452C624.867 285.466 626.134 284.487 627.379 283.516C627.421 283.638 627.462 283.76 627.504 283.881C638.845 275.085 648.39 266.914 656.259 259.485C657.27 258.531 658.254 257.589 659.21 256.659C662.078 253.87 664.7 251.194 667.082 248.638C653.537 248.034 636.085 248.717 614.706 251.281C604.947 231.506 592.845 213.09 578.761 196.395C666.105 181.696 727.795 188.099 739.871 218.666C740.415 220.042 740.853 221.454 741.187 222.9C754.221 279.346 609.026 388.475 410.394 470.264C406.554 471.845 402.722 473.404 398.898 474.942C312.163 509.916 229.722 533.737 162.549 545.002C162.506 544.951 162.463 544.899 162.421 544.848C80.7703 558.491 21.6873 553.616 4.8515 527.71C3.76675 526.041 2.85704 524.285 2.12833 522.44C-9.79523 492.26 29.1217 444.787 100.269 394.232C102.152 416.334 106.69 437.679 113.565 457.949C96.8536 470.973 84.1033 482.61 74.9177 492.469C78.3677 492.622 82.0711 492.693 86.0284 492.67C98.5466 492.597 113.605 491.59 131.213 489.34C198.63 480.724 290.125 455.665 388.605 415.114C389.278 414.837 389.951 414.559 390.622 414.282ZM641.818 375.599C582.841 415.777 505.688 456.877 419.01 492.625C333.512 527.886 251.144 552.825 181.966 565.888C230.781 613.179 297.322 642.287 370.662 642.287C518.949 642.287 639.438 523.292 641.818 375.599ZM614.069 251.452C604.321 231.674 592.233 213.256 578.166 196.56L577.997 196.589C583.835 203.52 589.332 210.748 594.462 218.247C601.689 228.809 608.187 239.909 613.885 251.474L614.069 251.452ZM683.676 225.971C683.709 225.961 683.632 226.262 683.348 226.902C683.501 226.3 683.643 225.98 683.676 225.971ZM47.5628 487.898C47.5928 487.882 47.9123 488.012 48.4317 488.336C47.7926 488.076 47.5329 487.914 47.5628 487.898ZM58.3241 515.135C58.2915 515.145 58.3683 514.844 58.6522 514.204C58.4986 514.806 58.3566 515.126 58.3241 515.135ZM693.568 252.77C694.208 253.03 694.467 253.192 694.437 253.208C694.407 253.224 694.088 253.094 693.568 252.77Z" fill="#FEEBFF"/>
</svg>
